#!OML:ASF I:\Actors\actors\Patient Classification 2\Patient 1\Session 1\actor1.ASF
:FULLY-SPECIFIED
:DEGREES
406
root -0.248965 18.7932 5.21989 6.19414 13.0319 0.914584
lowerback 13.9375 6.59824 2.98433
upperback 1.63593 9.30468 1.86917
thorax -5.85139 4.50558 -1.40973
lowerneck -10.9602 -11.9711 -10.2926
upperneck 6.53301 -15.3677 8.44922
head 5.17342 -7.36079 2.88662
rclavicle 1.82882e-014 3.18055e-015
rhumerus -7.64239 8.76485 -58.0024
rradius 78.7844
rwrist -44.0018
rhand 0.105983 -48.8338
rfingers 7.12502
rthumb 25.6919 -77.1199
lclavicle 1.82882e-014 3.18055e-015
lhumerus -49.9366 -11.9247 93.8401
lradius 60.8397
lwrist 14.9075
lhand -6.69441 -25.0979
lfingers 7.12502
lthumb 19.1647 3.97782
rfemur 0 0 0
rtibia 0
rfoot 0 0
rtoes 0
lfemur -15.281 -8.60842 -14.9956
ltibia 23.6516
lfoot -16.0845 4.38762
ltoes -55.7827
407
root -0.242403 18.7931 5.23311 6.26278 13.672 0.780013
lowerback 13.5628 6.32601 3.13118
upperback 1.51571 8.96613 1.98425
thorax -5.78129 4.34091 -1.27378
lowerneck -11.0312 -11.8007 -9.88686
upperneck 6.59608 -15.1525 8.06836
head 5.12272 -7.26504 2.73616
rclavicle -4.29375e-014 -2.54444e-014
rhumerus -7.59281 8.61617 -58.4902
rradius 78.8621
rwrist -45.0751
rhand -0.507638 -49.7082
rfingers 7.12502
rthumb 25.1041 -78.0779
lclavicle -4.29375e-014 -2.54444e-014
lhumerus -50.4526 -11.3208 93.7099
lradius 61.3864
lwrist 15.0936
lhand -7.51024 -25.36
lfingers 7.12502
lthumb 18.38 3.79167
rfemur 0 0 0
rtibia 0
rfoot 0 0
rtoes 0
lfemur -15.5483 -8.80799 -14.8096
ltibia 23.7444
lfoot -15.9529 4.05064
ltoes -55.8497
408
root -0.237676 18.7934 5.24671 6.34021 14.3949 0.684353
lowerback 13.2476 5.97112 3.31211
upperback 1.34179 8.52065 2.01029
thorax -5.78475 4.11897 -1.24361
lowerneck -11.1013 -11.6423 -9.54825
upperneck 6.86183 -14.9733 7.82988
head 5.15682 -7.17816 2.62742
rclavicle 5.76476e-014 -7.95139e-015
rhumerus -7.44855 8.10999 -59.2306
rradius 78.4975
rwrist -45.032
rhand -1.04343 -49.6865
rfingers 7.12502
rthumb 24.5906 -78.1271
lclavicle 5.76476e-014 -7.95139e-015
lhumerus -51.0299 -10.6712 93.3892
lradius 61.9357
lwrist 15.6022
lhand -8.44965 -25.5658
lfingers 7.12502
lthumb 17.4761 3.66866
rfemur 0 0 0
rtibia 0
rfoot 0 0
rtoes 0
lfemur -15.8275 -8.9466 -14.6491
ltibia 23.8177
lfoot -15.7515 3.53592
ltoes -55.9306
409
root -0.233419 18.7928 5.25778 6.40409 14.9592 0.7017
lowerback 13.0503 5.68424 3.40437
upperback 1.15584 8.15295 1.97766
thorax -5.86807 3.93331 -1.25594
lowerneck -11.0392 -11.5392 -9.56909
upperneck 7.14208 -14.8682 7.94709
head 5.23702 -7.11914 2.67343
rclavicle 5.40694e-014 0
rhumerus -7.46723 7.55436 -59.7716
rradius 78.1711
rwrist -43.9245
rhand -0.595838 -49.3183
rfingers 7.12502
rthumb 25.0195 -77.6998
lclavicle 5.40694e-014 0
lhumerus -51.4981 -10.1307 93.0501
lradius 62.2839
lwrist 16.1146
lhand -9.0693 -25.7277
lfingers 7.12502
lthumb 16.8797 3.55866
rfemur 0 0 0
rtibia 0
rfoot 0 0
rtoes 0
lfemur -16.015 -9.02146 -14.6209
ltibia 23.8656
lfoot -15.5892 3.02951
ltoes -55.8317
410
root -0.228457 18.7908 5.26492 6.35501 15.231 0.765506
lowerback 13.0396 5.50929 3.4295
upperback 1.04556 7.92803 1.9449
thorax -5.9792 3.81816 -1.27202
lowerneck -11.0524 -11.5165 -9.70231
upperneck 7.44807 -14.8516 8.07727
head 5.35412 -7.10294 2.72455
rclavicle -3.33958e-014 -1.27222e-014
rhumerus -7.48561 7.4754 -59.7985
rradius 78.1234
rwrist -43.4728
rhand -0.62384 -48.6609
rfingers 7.12502
rthumb 24.9927 -77.0461
lclavicle -3.33958e-014 -1.27222e-014
lhumerus -51.761 -9.69698 92.7487
lradius 62.4978
lwrist 16.3796
lhand -9.20319 -25.8156
lfingers 7.12502
lthumb 16.7508 3.48178
rfemur 0 0 0
rtibia 0
rfoot 0 0
rtoes 0
lfemur -15.983 -9.08877 -14.6859
ltibia 23.8854
lfoot -15.5421 2.77083
ltoes -55.6343
411
root -0.225789 18.789 5.26794 6.24103 15.298 0.808294
lowerback 13.0858 5.43818 3.38033
upperback 1.02313 7.83206 1.97035
thorax -6.04239 3.77075 -1.2095
lowerneck -11.0279 -11.5587 -9.80213
upperneck 7.56015 -14.9021 8.07038
head 5.39634 -7.13011 2.72902
rclavicle 7.55382e-015 -1.74931e-014
rhumerus -7.41726 7.77984 -59.3687
rradius 78.2443
rwrist -43.9176
rhand -1.4608 -47.859
rfingers 7.12502
rthumb 24.1905 -76.3534
lclavicle 7.55382e-015 -1.74931e-014
lhumerus -51.8442 -9.4948 92.5875
lradius 62.6393
lwrist 16.4847
lhand -8.96158 -25.8308
lfingers 7.12502
lthumb 16.9834 3.44675
rfemur 0 0 0
rtibia 0
rfoot 0 0
rtoes 0
lfemur -15.8303 -8.91658 -14.769
ltibia 23.8769
lfoot -15.5198 2.5461
ltoes -55.6596
412
root -0.223807 18.7878 5.26882 6.11026 15.2998 0.822221
lowerback 13.1105 5.4553 3.3486
upperback 1.02822 7.85446 2.01707
thorax -6.06099 3.78267 -1.15015
lowerneck -10.7986 -11.6415 -9.97468
upperneck 7.44301 -15.0088 8.13048
head 5.34944 -7.19095 2.77414
rclavicle -8.18993e-014 1.74931e-014
rhumerus -7.44647 8.03619 -58.7314
rradius 78.4153
rwrist -44.3461
rhand -1.78786 -47.6153
rfingers 7.12502
rthumb 23.8768 -76.1511
lclavicle -8.18993e-014 1.74931e-014
lhumerus -51.8954 -9.6848 92.6484
lradius 62.8222
lwrist 16.6757
lhand -8.79119 -25.1893
lfingers 7.12502
lthumb 17.1474 4.07401
rfemur 0 0 0
rtibia 0
rfoot 0 0
rtoes 0
lfemur -15.6515 -8.64229 -14.8338
ltibia 23.8577
lfoot -15.4965 2.32782
ltoes -55.7887
413
root -0.220733 18.786 5.2703 5.9968 15.3045 0.875739
lowerback 13.1174 5.50937 3.335
upperback 1.0371 7.92437 2.02149
thorax -6.05549 3.81753 -1.15023
lowerneck -10.557 -11.7424 -10.1112
upperneck 7.32869 -15.1489 8.20224
head 5.30296 -7.26666 2.81447
rclavicle 6.16232e-014 7.95139e-015
rhumerus -7.6063 8.1053 -58.1741
rradius 78.5814
rwrist -44.4575
rhand -1.65461 -47.6588
rfingers 7.12502
rthumb 24.0046 -76.1779
lclavicle 6.16232e-014 7.95139e-015
lhumerus -51.8786 -10.042 92.7367
lradius 62.9044
lwrist 16.7265
lhand -8.80029 -24.4497
lfingers 7.12502
lthumb 17.1387 4.81441
rfemur 0 0 0
rtibia 0
rfoot 0 0
rtoes 0
lfemur -15.4803 -8.59027 -14.9318
ltibia 23.8383
lfoot -15.5277 2.30413
ltoes -55.8537
414
root -0.219714 18.7847 5.27268 5.96738 15.3315 0.956647
lowerback 13.069 5.55762 3.30184
upperback 1.0265 7.97908 1.98205
thorax -6.03673 3.84531 -1.17781
lowerneck -10.4715 -11.8159 -10.0705
upperneck 7.35313 -15.2552 8.12776
head 5.2967 -7.32382 2.77807
rclavicle -2.1588e-013 -1.59028e-015
rhumerus -7.80839 7.9613 -57.8688
rradius 78.6975
rwrist -44.5183
rhand -1.62994 -47.7298
rfingers 7.12502
rthumb 24.0283 -76.2457
lclavicle -2.1588e-013 -1.59028e-015
lhumerus -51.772 -10.3581 92.6798
lradius 62.7053
lwrist 16.3853
lhand -8.81735 -24.8453
lfingers 7.12502
lthumb 17.1223 4.42019
rfemur 0 0 0
rtibia 0
rfoot 0 0
rtoes 0
lfemur -15.409 -8.61706 -15.0319
ltibia 23.8212
lfoot -15.5422 2.31052
ltoes -55.8556
